<svg xmlns="http://www.w3.org/2000/svg" xmlns:xlink="http://www.w3.org/1999/xlink" viewBox="0,0,256,256" width="50px" height="50px" fill-rule="nonzero"><g fill="#ffffff" fill-rule="nonzero" stroke="none" stroke-width="1" stroke-linecap="butt" stroke-linejoin="miter" stroke-miterlimit="10" stroke-dasharray="" stroke-dashoffset="0" font-family="none" font-weight="none" font-size="none" text-anchor="none" style="mix-blend-mode: normal"><g transform="scale(5.12,5.12)"><path d="M17.1875,10.9375c-7.76562,0 -14.0625,6.29688 -14.0625,14.0625c0,7.76563 6.29688,14.0625 14.0625,14.0625c7.76563,0 14.0625,-6.29687 14.0625,-14.0625c0,-0.96484 -0.10547,-1.90625 -0.28906,-2.8125l-0.07812,-0.3125h-13.69531v4.6875h9.375c-0.74609,4.43359 -4.73047,7.8125 -9.375,7.8125c-5.17969,0 -9.375,-4.19531 -9.375,-9.375c0,-5.17969 4.19531,-9.375 9.375,-9.375c2.34375,0 4.48047,0.86719 6.125,2.28906l3.35938,-3.28906c-2.5,-2.28906 -5.82812,-3.6875 -9.48437,-3.6875zM39.0625,17.1875v4.6875h-4.6875v3.125h4.6875v4.6875h3.125v-4.6875h4.6875v-3.125h-4.6875v-4.6875z"></path></g></g></svg>